# xmcd
#
# Track frame offsets:
#	150
#	14310
#	35328
#	49739
#	68241
#	81360
#	94606
#	114026
#	127238
#	145188
#	163068
#	181351
#	194588
#	211328
#
# Disc length: 3046 seconds
#
# Revision: 1
# Processed by: cddbd v1.4PL0 Copyright (c) Steve Scherf et al.
# Submitted via: audiograbber 1.80.04
#
DISCID=c30be40e
DTITLE=Dobie Gray - Lying In My Loving Arms
DYEAR=1900
DGENRE=Blues
TTITLE0=Loving Arms
TTITLE1=Drift Away
TTITLE2=I Can See Clearly Now
TTITLE3=We Had It All
TTITLE4=Guess Who?
TTITLE5=It's Over
TTITLE6=Lean On Me
TTITLE7=Cupid
TTITLE8=Streets Of Fire
TTITLE9=What A Wonderfull World
TTITLE10=It's Not Because We Didn't Try
TTITLE11=Slip Away
TTITLE12=Slow Rain
TTITLE13=If I Ever Needed You
EXTD=
EXTT0=
EXTT1=
EXTT2=
EXTT3=
EXTT4=
EXTT5=
EXTT6=
EXTT7=
EXTT8=
EXTT9=
EXTT10=
EXTT11=
EXTT12=
EXTT13=
PLAYORDER=
